<svg xmlns="http://www.w3.org/2000/svg" viewBox="0 0 1600 900" role="img" aria-labelledby="title desc">
  <title id="title">Ultimate PPT Master colorful bilingual hero diagram</title>
  <desc id="desc">A premium colorful bilingual product illustration showing source documents flowing through an AI presentation studio into editable PPTX and magazine web deck outputs.</desc>
  <defs>
    <linearGradient id="pageBg" x1="0" y1="0" x2="1" y2="1">
      <stop offset="0" stop-color="#FFF8EC"/>
      <stop offset="0.35" stop-color="#F4F8FF"/>
      <stop offset="0.72" stop-color="#F8F1FF"/>
      <stop offset="1" stop-color="#FFF3E8"/>
    </linearGradient>
    <linearGradient id="studio" x1="0" y1="0" x2="1" y2="1">
      <stop offset="0" stop-color="#FFFFFF" stop-opacity="0.94"/>
      <stop offset="1" stop-color="#F3F6FF" stop-opacity="0.86"/>
    </linearGradient>
    <linearGradient id="ribbonA" x1="0" y1="0" x2="1" y2="0">
      <stop offset="0" stop-color="#FF7A59"/>
      <stop offset="0.34" stop-color="#FFC857"/>
      <stop offset="0.66" stop-color="#45D1A6"/>
      <stop offset="1" stop-color="#4F8CFF"/>
    </linearGradient>
    <linearGradient id="ribbonB" x1="0" y1="0" x2="1" y2="1">
      <stop offset="0" stop-color="#7C3AED"/>
      <stop offset="0.52" stop-color="#18B6F6"/>
      <stop offset="1" stop-color="#F97316"/>
    </linearGradient>
    <linearGradient id="ppt" x1="0" y1="0" x2="1" y2="1">
      <stop offset="0" stop-color="#FF8A4C"/>
      <stop offset="1" stop-color="#E23B6C"/>
    </linearGradient>
    <linearGradient id="web" x1="0" y1="0" x2="1" y2="1">
      <stop offset="0" stop-color="#10B981"/>
      <stop offset="0.52" stop-color="#24C6DC"/>
      <stop offset="1" stop-color="#5B7CFA"/>
    </linearGradient>
    <linearGradient id="ink" x1="0" y1="0" x2="1" y2="1">
      <stop offset="0" stop-color="#182033"/>
      <stop offset="1" stop-color="#35405B"/>
    </linearGradient>
    <filter id="shadow" x="-18%" y="-18%" width="136%" height="140%">
      <feDropShadow dx="0" dy="24" stdDeviation="28" flood-color="#51607A" flood-opacity="0.22"/>
    </filter>
    <filter id="soft" x="-18%" y="-18%" width="136%" height="136%">
      <feDropShadow dx="0" dy="12" stdDeviation="18" flood-color="#48607A" flood-opacity="0.13"/>
    </filter>
    <pattern id="dotGrid" width="36" height="36" patternUnits="userSpaceOnUse">
      <circle cx="2" cy="2" r="1.6" fill="#50607A" opacity="0.11"/>
    </pattern>
  </defs>

  <rect width="1600" height="900" fill="url(#pageBg)"/>
  <rect width="1600" height="900" fill="url(#dotGrid)" opacity="0.9"/>

  <path d="M-60 186C198 56 344 96 534 190C742 294 890 292 1084 178C1255 77 1411 63 1660 132" fill="none" stroke="url(#ribbonA)" stroke-width="38" stroke-linecap="round" opacity="0.17"/>
  <path d="M-70 724C190 600 409 625 587 710C791 807 979 812 1169 698C1342 595 1488 591 1665 672" fill="none" stroke="url(#ribbonB)" stroke-width="42" stroke-linecap="round" opacity="0.14"/>
  <path d="M160 118L247 78L314 135L224 178Z" fill="#FFB84D" opacity="0.28"/>
  <path d="M1298 92L1404 132L1349 223L1246 167Z" fill="#7C3AED" opacity="0.14"/>
  <path d="M110 760L214 720L270 800L158 838Z" fill="#10B981" opacity="0.14"/>
  <path d="M1392 715L1494 672L1542 762L1448 812Z" fill="#FF6B6B" opacity="0.14"/>

  <g transform="translate(110 92)">
    <rect x="0" y="0" width="344" height="42" rx="21" fill="#FFFFFF" opacity="0.76" filter="url(#soft)"/>
    <circle cx="26" cy="21" r="8" fill="#FF7A59"/>
    <circle cx="51" cy="21" r="8" fill="#FFC857"/>
    <circle cx="76" cy="21" r="8" fill="#45D1A6"/>
    <text x="100" y="27" fill="#536078" font-family="Inter, Helvetica, Arial, PingFang SC, Noto Sans CJK SC, Microsoft YaHei, sans-serif" font-size="14" font-weight="700">v2.0.0 fusion release / 融合大版本</text>

    <text x="0" y="112" fill="#172033" font-family="Inter, Helvetica, Arial, PingFang SC, Noto Sans CJK SC, Microsoft YaHei, sans-serif" font-size="52" font-weight="850">Ultimate PPT Master</text>
    <text x="0" y="158" fill="#7C3AED" font-family="Inter, Helvetica, Arial, PingFang SC, Noto Sans CJK SC, Microsoft YaHei, sans-serif" font-size="34" font-weight="850">终极融合 PPT 大师</text>
    <text x="0" y="200" fill="#536078" font-family="Inter, Helvetica, Arial, PingFang SC, Noto Sans CJK SC, Microsoft YaHei, sans-serif" font-size="22">Editable PowerPoint + cinematic web decks / 可编辑 PPT + 高质感网页演示</text>
  </g>

  <g filter="url(#shadow)">
    <rect x="116" y="312" width="286" height="352" rx="32" fill="#FFFFFF" opacity="0.9"/>
    <rect x="116" y="312" width="286" height="86" rx="32" fill="#FFF1DC"/>
    <text x="150" y="354" fill="#172033" font-family="Inter, Helvetica, Arial, PingFang SC, Noto Sans CJK SC, Microsoft YaHei, sans-serif" font-size="23" font-weight="800">Source Stack</text>
    <text x="150" y="382" fill="#C2410C" font-family="Inter, Helvetica, Arial, PingFang SC, Noto Sans CJK SC, Microsoft YaHei, sans-serif" font-size="18" font-weight="800">资料输入</text>

    <g font-family="Inter, Helvetica, Arial, sans-serif" font-size="15" font-weight="800">
      <rect x="150" y="430" width="92" height="54" rx="17" fill="#FFE2D2"/>
      <text x="177" y="464" fill="#C2410C">PDF</text>
      <rect x="262" y="430" width="92" height="54" rx="17" fill="#E4F1FF"/>
      <text x="288" y="464" fill="#2563EB">DOCX</text>
      <rect x="150" y="504" width="92" height="54" rx="17" fill="#DCFCE7"/>
      <text x="175" y="538" fill="#15803D">XLSX</text>
      <rect x="262" y="504" width="92" height="54" rx="17" fill="#F3E8FF"/>
      <text x="288" y="538" fill="#7E22CE">PPTX</text>
      <rect x="150" y="578" width="92" height="54" rx="17" fill="#FEF3C7"/>
      <text x="177" y="612" fill="#B45309">URL</text>
      <rect x="262" y="578" width="92" height="54" rx="17" fill="#E0F2FE"/>
      <text x="294" y="612" fill="#0369A1">MD</text>
    </g>
  </g>

  <g opacity="0.82">
    <path d="M404 470C464 438 501 432 566 451" fill="none" stroke="url(#ribbonA)" stroke-width="10" stroke-linecap="round"/>
    <path d="M406 512C462 548 502 556 568 539" fill="none" stroke="url(#ribbonB)" stroke-width="10" stroke-linecap="round"/>
  </g>

  <g filter="url(#shadow)">
    <rect x="552" y="246" width="520" height="468" rx="40" fill="url(#studio)" stroke="#FFFFFF" stroke-width="2"/>
    <rect x="596" y="286" width="432" height="68" rx="22" fill="#172033"/>
    <text x="628" y="318" fill="#FFFFFF" font-family="Inter, Helvetica, Arial, PingFang SC, Noto Sans CJK SC, Microsoft YaHei, sans-serif" font-size="24" font-weight="800">AI Presentation Studio</text>
    <text x="628" y="343" fill="#CAD7FF" font-family="Inter, Helvetica, Arial, PingFang SC, Noto Sans CJK SC, Microsoft YaHei, sans-serif" font-size="16" font-weight="700">AI 演示工作台</text>

    <g transform="translate(612 392)" font-family="Inter, Helvetica, Arial, sans-serif">
      <rect x="0" y="0" width="156" height="86" rx="24" fill="#FFF7ED" stroke="#FED7AA"/>
      <text x="27" y="36" fill="#C2410C" font-size="17" font-weight="800">Strategy</text>
      <text x="40" y="64" fill="#8A5B3D" font-size="15" font-weight="700">策略</text>

      <rect x="200" y="0" width="156" height="86" rx="24" fill="#EEF2FF" stroke="#C7D2FE"/>
      <text x="242" y="36" fill="#4338CA" font-size="17" font-weight="800">Design</text>
      <text x="255" y="64" fill="#5B6280" font-size="15" font-weight="700">设计</text>

      <rect x="0" y="128" width="156" height="86" rx="24" fill="#ECFDF5" stroke="#A7F3D0"/>
      <text x="38" y="164" fill="#047857" font-size="17" font-weight="800">Render</text>
      <text x="55" y="192" fill="#4E7265" font-size="15" font-weight="700">生成</text>

      <rect x="200" y="128" width="156" height="86" rx="24" fill="#FDF2F8" stroke="#FBCFE8"/>
      <text x="244" y="164" fill="#BE185D" font-size="17" font-weight="800">Verify</text>
      <text x="255" y="192" fill="#7E5264" font-size="15" font-weight="700">验证</text>

      <path d="M156 43H200M278 86V128M200 171H156M78 128V86" fill="none" stroke="url(#ribbonA)" stroke-width="5" stroke-linecap="round"/>
    </g>

    <g transform="translate(632 646)">
      <rect x="0" y="0" width="360" height="46" rx="23" fill="#FFFFFF" stroke="#D6DCEA"/>
      <rect x="16" y="13" width="92" height="20" rx="10" fill="#FFE7D6"/>
      <rect x="122" y="13" width="98" height="20" rx="10" fill="#DDF7EF"/>
      <rect x="234" y="13" width="108" height="20" rx="10" fill="#E9E6FF"/>
    </g>
  </g>

  <g opacity="0.86">
    <path d="M1070 396C1132 350 1176 337 1234 348" fill="none" stroke="url(#ppt)" stroke-width="10" stroke-linecap="round"/>
    <path d="M1070 566C1131 615 1178 628 1236 612" fill="none" stroke="url(#web)" stroke-width="10" stroke-linecap="round"/>
  </g>

  <g filter="url(#shadow)" font-family="Inter, Helvetica, Arial, sans-serif">
    <rect x="1218" y="246" width="292" height="216" rx="34" fill="#FFFFFF" opacity="0.92"/>
    <rect x="1244" y="274" width="240" height="118" rx="22" fill="#FFF0E7"/>
    <rect x="1266" y="298" width="92" height="16" rx="8" fill="url(#ppt)"/>
    <rect x="1266" y="326" width="162" height="12" rx="6" fill="#F9B8A4"/>
    <rect x="1266" y="352" width="118" height="12" rx="6" fill="#F9B8A4"/>
    <rect x="1402" y="300" width="48" height="66" rx="12" fill="#FFFFFF" opacity="0.78"/>
    <text x="1248" y="424" fill="#172033" font-size="23" font-weight="850">Editable PPTX</text>
    <text x="1248" y="452" fill="#C2410C" font-size="17" font-weight="800">可编辑 PowerPoint</text>

    <rect x="1218" y="532" width="292" height="216" rx="34" fill="#FFFFFF" opacity="0.92"/>
    <rect x="1244" y="560" width="240" height="118" rx="22" fill="#EAF7FF"/>
    <path d="M1268 642C1306 594 1344 642 1382 596C1412 561 1448 584 1460 614" fill="none" stroke="url(#web)" stroke-width="10" stroke-linecap="round"/>
    <rect x="1266" y="586" width="76" height="13" rx="6.5" fill="#10B981"/>
    <rect x="1266" y="610" width="128" height="10" rx="5" fill="#9BE7D0"/>
    <text x="1248" y="710" fill="#172033" font-size="23" font-weight="850">Web Decks</text>
    <text x="1248" y="738" fill="#047857" font-size="17" font-weight="800">杂志风网页 PPT</text>
  </g>

  <g filter="url(#soft)" font-family="Inter, Helvetica, Arial, sans-serif">
    <rect x="560" y="760" width="132" height="54" rx="18" fill="#FFFFFF" opacity="0.84"/>
    <text x="590" y="783" fill="#6D28D9" font-size="14" font-weight="800">Preview</text>
    <text x="596" y="803" fill="#6D28D9" font-size="14" font-weight="800">预览</text>
    <rect x="716" y="760" width="132" height="54" rx="18" fill="#FFFFFF" opacity="0.84"/>
    <text x="744" y="783" fill="#047857" font-size="14" font-weight="800">Images</text>
    <text x="750" y="803" fill="#047857" font-size="14" font-weight="800">配图</text>
    <rect x="872" y="760" width="132" height="54" rx="18" fill="#FFFFFF" opacity="0.84"/>
    <text x="904" y="783" fill="#C2410C" font-size="14" font-weight="800">Audio</text>
    <text x="908" y="803" fill="#C2410C" font-size="14" font-weight="800">旁白</text>
    <rect x="1028" y="760" width="132" height="54" rx="18" fill="#FFFFFF" opacity="0.84"/>
    <text x="1050" y="783" fill="#2563EB" font-size="14" font-weight="800">Validate</text>
    <text x="1062" y="803" fill="#2563EB" font-size="14" font-weight="800">校验</text>
  </g>
</svg>
