<svg xmlns="http://www.w3.org/2000/svg" viewBox="0 0 1600 900" role="img" aria-labelledby="title desc">
  <title id="title">Ultimate PPT Master v6.3.6 未发布候选·任务型演示文稿工作台</title>
  <desc id="desc">Ultimate PPT Master v6 从真实资料出发；Best-effect brief 与 sourceConfidence 先确认故事板和证据，再选择视觉方向、逐页生成和局部精修，最终交付可编辑 PPTX 或 Web Deck。</desc>
  <defs>
    <linearGradient id="pageBg" x1="0" y1="0" x2="1" y2="1">
      <stop offset="0" stop-color="#F8FBFF"/>
      <stop offset="0.48" stop-color="#F5FAF7"/>
      <stop offset="1" stop-color="#FFF8F0"/>
    </linearGradient>
    <linearGradient id="inkLine" x1="0" y1="0" x2="1" y2="0">
      <stop offset="0" stop-color="#2563EB"/>
      <stop offset="0.45" stop-color="#14B8A6"/>
      <stop offset="1" stop-color="#F97316"/>
    </linearGradient>
    <linearGradient id="deckFace" x1="0" y1="0" x2="1" y2="1">
      <stop offset="0" stop-color="#FFFFFF"/>
      <stop offset="1" stop-color="#F6F9FC"/>
    </linearGradient>
    <filter id="softShadow" x="-14%" y="-18%" width="128%" height="140%" color-interpolation-filters="sRGB">
      <feDropShadow dx="0" dy="22" stdDeviation="26" flood-color="#172033" flood-opacity="0.13"/>
    </filter>
    <filter id="paperShadow" x="-12%" y="-16%" width="124%" height="136%" color-interpolation-filters="sRGB">
      <feDropShadow dx="0" dy="14" stdDeviation="18" flood-color="#172033" flood-opacity="0.12"/>
    </filter>
    <pattern id="quietGrid" width="54" height="54" patternUnits="userSpaceOnUse">
      <path d="M54 0H0V54" fill="none" stroke="#172033" stroke-opacity="0.035"/>
    </pattern>
  </defs>

  <rect width="1600" height="900" fill="url(#pageBg)"/>
  <rect width="1600" height="900" fill="url(#quietGrid)"/>
  <path d="M96 712C268 610 397 740 560 636C723 532 830 452 1012 520C1194 588 1287 695 1504 574" fill="none" stroke="#2563EB" stroke-opacity="0.08" stroke-width="34" stroke-linecap="round"/>
  <path d="M96 760C284 658 433 788 598 692C762 596 882 544 1040 604C1198 664 1306 776 1504 660" fill="none" stroke="#F97316" stroke-opacity="0.08" stroke-width="28" stroke-linecap="round"/>

  <g font-family="Microsoft YaHei, PingFang SC, Noto Sans CJK SC, Arial, sans-serif">
    <g transform="translate(116 82)">
      <rect width="454" height="52" rx="26" fill="#FFFFFF" filter="url(#paperShadow)"/>
      <circle cx="33" cy="26" r="8" fill="#2563EB"/>
      <circle cx="60" cy="26" r="8" fill="#14B8A6"/>
      <circle cx="87" cy="26" r="8" fill="#F97316"/>
      <text x="118" y="33" fill="#516173" font-size="16" font-weight="850">Ultimate PPT Master v6.3.6 · UNRELEASED CANDIDATE</text>

      <text x="0" y="138" fill="#101828" font-size="68" font-weight="900">从真实资料，到一份</text>
      <text x="0" y="214" fill="#101828" font-size="68" font-weight="900">能放心交付的 PPT</text>
      <rect x="2" y="244" width="560" height="10" rx="5" fill="url(#inkLine)"/>
      <text x="0" y="304" fill="#2563EB" font-size="31" font-weight="900">先确认故事与证据，再生成画面。</text>
      <text x="0" y="348" fill="#5B6B7E" font-size="21" font-weight="650">输入 → 故事板 → 设计与生成 → 精修与交付，</text>
      <text x="0" y="384" fill="#5B6B7E" font-size="21" font-weight="650">生成后按页修改，最后回到 PowerPoint 完成正式交付。</text>
    </g>

    <g transform="translate(114 494)" filter="url(#paperShadow)">
      <rect width="170" height="58" rx="29" fill="#FFFFFF"/>
      <text x="36" y="38" fill="#1D4ED8" font-size="20" font-weight="900">内容可编辑</text>
      <rect x="192" width="170" height="58" rx="29" fill="#FFFFFF"/>
      <text x="228" y="38" fill="#047857" font-size="20" font-weight="900">来源可追溯</text>
      <rect x="384" width="170" height="58" rx="29" fill="#FFFFFF"/>
      <text x="420" y="38" fill="#C2410C" font-size="20" font-weight="900">单页可重做</text>
    </g>

    <g transform="translate(866 82)" filter="url(#softShadow)">
      <rect x="0" y="42" width="560" height="430" rx="28" fill="#FFFFFF"/>
      <rect x="34" y="0" width="492" height="338" rx="24" fill="url(#deckFace)" stroke="#D9E2EC"/>
      <rect x="34" y="0" width="492" height="70" rx="24" fill="#101828"/>
      <text x="64" y="44" fill="#FFFFFF" font-size="22" font-weight="900">v6 本地演示工作台</text>
      <text x="326" y="44" fill="#B8C4D4" font-size="16" font-weight="750">PPTX · Web · QA</text>

      <g transform="translate(70 104)">
        <text x="0" y="0" fill="#101828" font-size="40" font-weight="900">先结构，后精修</text>
        <text x="0" y="44" fill="#64748B" font-size="19" font-weight="700">快速结构稿先可点可改，高成本视觉只精修需要的页面。</text>
        <rect x="0" y="84" width="140" height="46" rx="23" fill="#DBEAFE"/>
        <text x="30" y="114" fill="#1D4ED8" font-size="18" font-weight="900">故事板</text>
        <rect x="158" y="84" width="140" height="46" rx="23" fill="#CCFBF1"/>
        <text x="188" y="114" fill="#0F766E" font-size="18" font-weight="900">三种方向</text>
        <rect x="316" y="84" width="140" height="46" rx="23" fill="#FFEDD5"/>
        <text x="346" y="114" fill="#C2410C" font-size="18" font-weight="900">逐页精修</text>
      </g>

      <g transform="translate(70 276)">
        <rect width="408" height="14" rx="7" fill="#E2E8F0"/>
        <rect width="286" height="14" rx="7" fill="url(#inkLine)"/>
      </g>
      <rect x="86" y="390" width="388" height="34" rx="17" fill="#F8FAFC"/>
      <text x="136" y="413" fill="#475569" font-size="16" font-weight="800">微软雅黑优先 · 官方素材优先 · GPT 画面不贴字</text>
    </g>

    <g transform="translate(748 518)">
      <g transform="rotate(-8 0 0)" filter="url(#paperShadow)">
        <rect width="214" height="118" rx="18" fill="#EFF6FF"/>
      <text x="26" y="42" fill="#1D4ED8" font-size="19" font-weight="900">最多三个问题</text>
      <text x="26" y="76" fill="#355B91" font-size="14" font-weight="750">只问真正改变结果</text>
      <text x="26" y="99" fill="#355B91" font-size="14" font-weight="750">的关键信息</text>
      </g>
      <g transform="translate(178 36) rotate(6)" filter="url(#paperShadow)">
        <rect width="230" height="126" rx="18" fill="#ECFDF5"/>
        <text x="26" y="44" fill="#047857" font-size="19" font-weight="900">真实方向预览</text>
        <text x="26" y="80" fill="#23684E" font-size="14" font-weight="750">封面、正文、数据</text>
        <text x="26" y="103" fill="#23684E" font-size="14" font-weight="750">图表一起看</text>
      </g>
      <g transform="translate(392 6) rotate(-4)" filter="url(#paperShadow)">
        <rect width="214" height="118" rx="18" fill="#FFF7ED"/>
        <text x="26" y="42" fill="#C2410C" font-size="19" font-weight="900">交付有底气</text>
        <text x="26" y="76" fill="#8A4B17" font-size="14" font-weight="750">图片能用，文字能改</text>
        <text x="26" y="99" fill="#8A4B17" font-size="14" font-weight="750">审阅留底</text>
      </g>
    </g>

    <g transform="translate(116 708)" filter="url(#softShadow)">
      <rect width="1368" height="106" rx="26" fill="#FFFFFF"/>
      <text x="38" y="43" fill="#101828" font-size="25" font-weight="900">工程能力，最终要变成使用体验：</text>
      <text x="420" y="43" fill="#5B6B7E" font-size="19" font-weight="750">少输入也能放心生成 · 生成后可以局部改 · 交付前有证据和质量门禁</text>
      <rect x="38" y="68" width="1292" height="10" rx="5" fill="#E2E8F0"/>
      <rect x="38" y="68" width="1038" height="10" rx="5" fill="url(#inkLine)"/>
    </g>
  </g>
</svg>
